<?xml version="1.0" encoding="UTF-8"?>
<svg id="Calque_2" data-name="Calque 2" xmlns="http://www.w3.org/2000/svg" viewBox="0 0 112.66 103.7">
  <defs>
    <style>
      .cls-1 {
        fill: #daab62;
      }
    </style>
  </defs>
  <g id="_الشعار" data-name="الشعار">
    <g>
      <path class="cls-1" d="M80.73,31.21l-.19-.44c-.1-.23-10.32-23.2-24.44-29.93-1.7,1.09-15.99,10.69-23.98,30.26l-.19,.48-10.55-9.19L.81,49.92l14.89,53.04H97.13l14.72-52.2-20.25-28.39-10.87,8.83Zm-47.05,15.13l.21-.58,.41,.46c.1,.12,10.23,11.84,7.08,32.22l-.17,1.09-11.18-20.87c-.03-.17-.15-1.94,3.65-12.32Zm19.18,50.21H20.69l-.08-.27L7.9,51.8l14.45-19.87,6.82,5.68-6.23,21.06,19.16,36.26c2.43-3.78,16.54-28.33-5.34-57.63l-.13-.18,.09-.2c.39-.84,9.61-20.58,15.56-24.68l.58-.4V96.54Zm25.66-51.33l.21,.58c3.79,10.38,3.67,12.15,3.65,12.32l-.04,.12-11.14,20.75-.17-1.09c-3.16-20.38,6.98-32.11,7.08-32.22l.41-.46Zm25.94,6.76l-12.74,44.57H59.55V11.85l.58,.4c5.95,4.1,15.17,23.84,15.56,24.68l.09,.2-.13,.18c-21.88,29.3-7.77,53.85-5.35,57.63l19.16-36.26-6.23-21.06,6.82-5.68,14.45,19.87-.05,.17Z"/>
      <path class="cls-1" d="M91.75,21.31l-10.73,8.72c-1.51-3.26-11.41-23.73-24.78-29.95l-.18-.08-.17,.1c-.16,.09-15.65,9.61-24.25,30.24l-10.37-9.03L0,49.77l15.14,53.92H97.69l14.92-52.9,.05-.17-20.91-29.31Zm5.38,81.65H15.7L.81,49.92,21.38,22.38l10.55,9.19,.19-.48C40.11,11.52,54.41,1.92,56.1,.84c14.12,6.72,24.33,29.69,24.44,29.93l.19,.44,10.87-8.83,20.25,28.39-14.72,52.2Z"/>
      <path class="cls-1" d="M83.24,37.61l6.23,21.06-19.16,36.26c-2.43-3.78-16.54-28.33,5.35-57.63l.13-.18-.09-.2c-.39-.84-9.61-20.58-15.56-24.68l-.58-.4V96.54h32.17l12.74-44.57,.05-.17-14.45-19.87-6.82,5.68Zm-22.95,58.19V13.29c5.49,4.58,13.67,21.7,14.64,23.75-23.28,31.36-5.9,57.36-4.92,58.77h-9.71Zm30.88,0h-20.49l19.52-36.92,.07-.13-6.17-20.88,5.84-4.87,13.78,18.94-12.54,43.86Z"/>
      <path class="cls-1" d="M36.72,36.93l-.09,.2,.13,.18c21.88,29.3,7.77,53.85,5.34,57.63L22.94,58.68l6.23-21.06-6.82-5.68L7.9,51.8l12.71,44.48,.08,.27H52.86V11.85l-.58,.4c-5.95,4.1-15.17,23.84-15.56,24.68Zm-15.48,58.88L8.71,51.94l13.78-18.94,5.84,4.87-6.17,20.88,19.58,37.05H21.24Zm30.88,0h-9.71c.98-1.41,18.36-27.41-4.92-58.77,.96-2.04,9.15-19.17,14.64-23.75V95.81Z"/>
      <path class="cls-1" d="M71.03,77.9l.17,1.09,11.14-20.75,.04-.12c.03-.17,.15-1.94-3.65-12.32l-.21-.58-.41,.46c-.1,.12-10.24,11.84-7.08,32.22Zm7.23-31.24c3.2,8.84,3.38,10.97,3.39,11.29l-10.05,18.73c-2.27-17.04,4.87-27.66,6.66-30.02Z"/>
      <path class="cls-1" d="M41.21,79.53l.17-1.09c3.16-20.38-6.98-32.11-7.08-32.22l-.41-.46-.21,.58c-3.79,10.38-3.67,12.15-3.65,12.32l11.18,20.87Zm-7.06-32.32c1.79,2.36,8.94,12.97,6.66,30.02l-10.05-18.72c0-.36,.21-2.54,3.38-11.29Z"/>
    </g>
  </g>
</svg>