<?xml version="1.0" encoding="UTF-8"?>
<svg id="Calque_2" data-name="Calque 2" xmlns="http://www.w3.org/2000/svg" viewBox="0 0 191.29 171.42">
  <defs>
    <style>
      .cls-1 {
        fill: #daab62;
      }
    </style>
  </defs>
  <g id="_الشعار" data-name="الشعار">
    <g>
      <g>
        <path class="cls-1" d="M120.24,31.21l-.19-.44c-.1-.23-10.32-23.2-24.44-29.93-1.7,1.09-15.99,10.69-23.98,30.26l-.19,.48-10.55-9.19-20.57,27.54,14.89,53.04h81.43l14.72-52.2-20.25-28.39-10.87,8.83Zm-47.05,15.13l.21-.58,.41,.46c.1,.12,10.23,11.84,7.08,32.22l-.17,1.09-11.18-20.87c-.03-.17-.15-1.94,3.65-12.32Zm19.18,50.21H60.2l-.08-.27-12.71-44.48,14.45-19.87,6.82,5.68-6.23,21.06,19.16,36.26c2.43-3.78,16.54-28.33-5.34-57.63l-.13-.18,.09-.2c.39-.84,9.61-20.58,15.56-24.68l.58-.4V96.54Zm25.66-51.33l.21,.58c3.79,10.38,3.67,12.15,3.65,12.32l-.04,.12-11.14,20.75-.17-1.09c-3.16-20.38,6.98-32.11,7.08-32.22l.41-.46Zm25.94,6.76l-12.74,44.57h-32.17V11.85l.58,.4c5.95,4.1,15.17,23.84,15.56,24.68l.09,.2-.13,.18c-21.88,29.3-7.77,53.85-5.35,57.63l19.16-36.26-6.23-21.06,6.82-5.68,14.45,19.87-.05,.17Z"/>
        <path class="cls-1" d="M131.26,21.31l-10.73,8.72c-1.51-3.26-11.41-23.73-24.78-29.95l-.18-.08-.17,.1c-.16,.09-15.65,9.61-24.25,30.24l-10.37-9.03-21.27,28.47,15.14,53.92h82.55l14.92-52.9,.05-.17-20.91-29.31Zm5.38,81.65H55.21l-14.89-53.04,20.57-27.54,10.55,9.19,.19-.48C79.62,11.52,93.92,1.92,95.61,.84c14.12,6.72,24.33,29.69,24.44,29.93l.19,.44,10.87-8.83,20.25,28.39-14.72,52.2Z"/>
        <path class="cls-1" d="M122.75,37.61l6.23,21.06-19.16,36.26c-2.43-3.78-16.54-28.33,5.35-57.63l.13-.18-.09-.2c-.39-.84-9.61-20.58-15.56-24.68l-.58-.4V96.54h32.17l12.74-44.57,.05-.17-14.45-19.87-6.82,5.68Zm-22.95,58.19V13.29c5.49,4.58,13.67,21.7,14.64,23.75-23.28,31.36-5.9,57.36-4.92,58.77h-9.71Zm30.88,0h-20.49l19.52-36.92,.07-.13-6.17-20.88,5.84-4.87,13.78,18.94-12.54,43.86Z"/>
        <path class="cls-1" d="M76.24,36.93l-.09,.2,.13,.18c21.88,29.3,7.77,53.85,5.34,57.63l-19.16-36.26,6.23-21.06-6.82-5.68-14.45,19.87,12.71,44.48,.08,.27h32.17V11.85l-.58,.4c-5.95,4.1-15.17,23.84-15.56,24.68Zm-15.48,58.88l-12.54-43.86,13.78-18.94,5.84,4.87-6.17,20.88,19.58,37.05h-20.49Zm30.88,0h-9.71c.98-1.41,18.36-27.41-4.92-58.77,.96-2.04,9.15-19.17,14.64-23.75V95.81Z"/>
        <path class="cls-1" d="M110.54,77.9l.17,1.09,11.14-20.75,.04-.12c.03-.17,.15-1.94-3.65-12.32l-.21-.58-.41,.46c-.1,.12-10.24,11.84-7.08,32.22Zm7.23-31.24c3.2,8.84,3.38,10.97,3.39,11.29l-10.05,18.73c-2.27-17.04,4.87-27.66,6.66-30.02Z"/>
        <path class="cls-1" d="M80.73,79.53l.17-1.09c3.16-20.38-6.98-32.11-7.08-32.22l-.41-.46-.21,.58c-3.79,10.38-3.67,12.15-3.65,12.32l11.18,20.87Zm-7.06-32.32c1.79,2.36,8.94,12.97,6.66,30.02l-10.05-18.72c0-.36,.21-2.54,3.38-11.29Z"/>
      </g>
      <g>
        <polygon class="cls-1" points="61.94 152.05 65.08 158.43 72.12 159.45 67.03 164.41 68.23 171.42 61.94 168.11 55.65 171.42 56.85 164.41 51.76 159.45 58.79 158.43 61.94 152.05"/>
        <polygon class="cls-1" points="84.48 152.05 87.63 158.43 94.66 159.45 89.57 164.41 90.78 171.42 84.48 168.11 78.19 171.42 79.39 164.41 74.3 159.45 81.34 158.43 84.48 152.05"/>
        <polygon class="cls-1" points="107.03 152.05 110.17 158.43 117.21 159.45 112.12 164.41 113.32 171.42 107.03 168.11 100.74 171.42 101.94 164.41 96.85 159.45 103.88 158.43 107.03 152.05"/>
        <polygon class="cls-1" points="129.57 152.05 132.72 158.43 139.75 159.45 134.66 164.41 135.86 171.42 129.57 168.11 123.28 171.42 124.48 164.41 119.39 159.45 126.43 158.43 129.57 152.05"/>
      </g>
      <path class="cls-1" d="M124.41,127.27c-.29-2.13-1.1-4.22-2.81-5.6-1.42-1.15-3.13-1.59-4.93-1.67-.16,0-.32-.01-.47-.01-2.91,0-6.98,1.44-7.57,4.71-.03,.19-.06,.38-.09,.57-.17,1.27-.18,2.55-.18,3.83,0,1.48,0,2.95,.06,4.42,.06,1.29,.04,2.67,.62,3.83,.46,.92,1.1,1.76,1.94,2.36,.97,.7,2.08,.91,3.24,1.05,1.2,.14,2.41,.14,3.61,0,1.18-.14,2.6-.36,3.67-.92,1.66-.88,2.4-3.28,2.74-4.99,.48-2.4,.49-5.15,.17-7.56Zm-4.04,6.31c-.09,1.12-.11,2.12-.97,2.96-2.35,2.3-7.15,1.12-7.22-2.46-.02-1.28-.03-2.56-.11-3.84-.08-1.31-.2-2.64,.02-3.94,.09-.56,.27-1.08,.6-1.53,1.17-1.6,3.6-1.86,5.34-1.17,1.11,.44,1.69,1.13,2.11,2.24,.44,1.18,.57,2.45,.55,3.7-.02,1.35-.21,2.68-.32,4.02Z"/>
      <path class="cls-1" d="M11.16,132.71s5.83-2.02,3.7-8.4c-.03-.1-.07-.2-.1-.3-1.59-4.36-7.02-4.45-10.86-3.84-1.07,.17-2.49,.23-3.17,1.16-.4,.56-.73,1.37-.73,2.07,0,1.47,.28,17.54,.28,17.54H3.88v-7.99h3.22l4.11,7.99h4.78l-4.82-8.23Zm-.54-4.18c-.64,1.24-2.09,1.36-3.35,1.32-.59-.02-1.19-.08-1.78-.06-.34,0-1.01,.22-1.27,.02-.02-.01-.03-.03-.04-.04-.23-.3-.06-1.35-.05-1.71,.02-.55,.05-1.09,.05-1.64,0-.67-.27-1.75,.36-2.22,.91-.67,2.16-.8,3.25-.64,.91,.14,2.32,.37,2.7,1.35,.44,1.11,.72,2.51,.14,3.62Z"/>
      <path class="cls-1" d="M38.4,123.68v-3.4h-13.62v17.31s-.24,3.03,3.26,3.36c3.5,.33,10.36,0,10.36,0v-3.31h-7.71s-2.08,.47-2.13-2.84c-.05-3.31,.09-2.51,.09-2.51h6.57v-3.36h-6.62v-5.39l9.79,.14Z"/>
      <polygon class="cls-1" points="45.92 140.6 52.49 130.42 45.92 120.27 51.02 120.27 54.66 126.94 58.59 120.27 63.46 120.27 57.26 130.42 63.84 140.6 58.97 140.6 54.88 133.89 50.69 140.6 45.92 140.6"/>
      <polygon class="cls-1" points="83.51 120.24 83.51 141.02 87.78 141.02 87.78 132.25 95.26 132.25 95.26 141.02 99.35 141.02 99.35 120.24 95.3 120.24 95.3 128.86 87.34 128.86 87.34 120.24 83.51 120.24"/>
      <polygon class="cls-1" points="137.52 140.86 141.29 140.86 141.29 123.5 146.87 123.5 146.87 120.27 131.84 120.27 131.84 123.55 137.47 123.55 137.52 140.86"/>
      <path class="cls-1" d="M169.63,123.67v-3.4h-13.62v17.31s-.24,3.03,3.26,3.36c3.5,.33,10.36,0,10.36,0v-3.31s-7.69,0-7.71,0c-2.61,0-2.26-3.58-2.09-5.33,.62-.09,6.62,.04,6.62-.01v-3.36h-6.62v-5.39l9.79,.14Z"/>
      <path class="cls-1" d="M178.56,120.27h3.87v14.4s-.36,3.03,3.15,3.03h5.71v3.38h-9.02s-3.67-.59-3.71-6.38c-.04-5.79,0-14.44,0-14.44Z"/>
    </g>
  </g>
</svg>